<?xml version="1.0"?>
<!--Icons from directory ""-->
<svg xmlns="http://www.w3.org/2000/svg" width="68" height="904" viewBox="0 0 68 904"><svg width="44" viewBox="0 0 44 45" height="45" id="2nd-display" y="0"><defs><style>.cls-1 {        fill: #666;        fill-rule: evenodd;      }</style></defs><path id="2nd-display-icon-2nd-display.svg" d="m716.21 4109.2l0.624-0.21a1.069 1.069 0 0 1 1.255 0.65l1.539 3.81a0.91 0.91 0 0 1 -0.688 1.09l-0.407 0.2zm-6.349 19.65s-0.045-0.07-0.114-0.18l-6.912 1.6a4.4 4.4 0 0 1 -1.1 0.14 4.237 4.237 0 0 1 -4.074 -3.14l-6.244-15.81h-1.46s-2.025 0.41-1.782 5.31 0.972 7.46 0.162 11.31a7.819 7.819 0 0 1 -3.605 5.31l0.608 3.12a23.168 23.168 0 0 1 11.543 1.78 13.208 13.208 0 0 0 5.954 1.75 6.5 6.5 0 0 0 2.147 -0.29l7.938-2.35a1.227 1.227 0 0 0 0.891 -1.01l0.526-2.64s0.2-0.48-0.809-1.5c0 0.1-3.44-2.6-3.68-3.3zm11.867-6.57-8.668-20.67a2.712 2.712 0 0 0 -2.916 -1.78l-19.6 1.78c-1.717 0.16-0.649 2.68-0.649 2.68l8.911 22.55c1.078 3.08 3.726 2.25 3.726 2.25l18.226-4.21c2.02-0.5 0.96-2.6 0.96-2.6zm-20.214 4.59-8.945-23.13 18.476-1.8 8.636 20.86zm14.7-17.67 0.624-0.21a1.069 1.069 0 0 1 1.255 0.65l1.539 3.81a0.91 0.91 0 0 1 -0.688 1.09l-0.407 0.2zm-28.094-5.96s-0.533-2.57 1.184-2.72l14.2-1.3 0.583-1.74a2.431 2.431 0 0 0 -2.43 -2.43l-15.391 0.61c-1.342 0-2.079 1.05-2.43 2.43l-5.84 15.4a2.425 2.425 0 0 0 2.43 2.43h6.507c-0.018-0.01-0.041-1.46-0.041-1.46 0.446-4.13 2.028-4.08 2.028-4.08l1.82-0.03" transform="translate(-678 -4095)" class="cls-1"/></svg><svg width="25" viewBox="0 0 25 30" height="30" id="android" y="45"><defs><style>.cls-1 {        fill: #a4c639;        fill-rule: evenodd;      }</style></defs><path id="android-icon-android.svg" d="m397.51 730.96h-2.179v4.261a1.766 1.766 0 1 1 -3.531 0v-4.261h-2.59v4.261a1.765 1.765 0 1 1 -3.529 0v-4.261h-2.18a1.216 1.216 0 0 1 -1.211 -1.221v-12.61c3.674-0.014 12.243-0.014 16.434 0v12.61a1.215 1.215 0 0 1 -1.21 1.22zm-3.03-21.116a8.487 8.487 0 0 1 4.321 6.49h-16.6a8.489 8.489 0 0 1 4.252 -6.449l-1.247-2.449a0.283 0.283 0 0 1 0.122 -0.378 0.277 0.277 0 0 1 0.375 0.122l1.245 2.445a8.176 8.176 0 0 1 7.029 -0.034l1.4-2.452a0.276 0.276 0 0 1 0.381 -0.1 0.28 0.28 0 0 1 0.1 0.382zm-8.413 2.834a0.69 0.69 0 1 0 0.692 -0.693 0.692 0.692 0 0 0 -0.69 0.7zm8.195 0.7a0.694 0.694 0 1 0 -0.69 -0.7 0.691 0.691 0 0 0 0.69 0.7zm8.74 12.95a1.77 1.77 0 0 1 -1.764 1.777 1.771 1.771 0 0 1 -1.766 -1.777v-7.779a1.769 1.769 0 0 1 1.766 -1.777 1.769 1.769 0 0 1 1.76 1.78v7.779zm-21.471 0a1.771 1.771 0 0 1 -1.763 1.777 1.771 1.771 0 0 1 -1.77 -1.78v-7.779a1.769 1.769 0 0 1 1.766 -1.777 1.77 1.77 0 0 1 1.763 1.777v7.779z" transform="translate(-378 -707)" class="cls-1"/></svg><svg width="4" viewBox="0 0 4 7" height="7" id="arrow-left" y="75"><defs><style>.cls-1 {        fill: #989898;        fill-rule: evenodd;      }</style></defs><path id="arrow-left-icon-arrow-left.svg" d="m967.41 1759a0.394 0.394 0 0 0 0.316 -0.18l3.14-2.9a0.745 0.745 0 0 0 0 -0.84l-3.14-2.9a0.37 0.37 0 0 0 -0.63 -0.01 0.756 0.756 0 0 0 0 0.85l2.828 2.48-2.828 2.48a0.756 0.756 0 0 0 0 0.85 0.409 0.409 0 0 0 0.31 0.2z" transform="translate(-967 -1752)" class="cls-1"/></svg><svg width="30" viewBox="0 0 30 32" height="32" id="cable" y="82"><defs><style>.cls-1 {        fill: #666;        fill-rule: evenodd;      }</style></defs><path id="cable-icom-cable.svg" d="m1055 3657.6v-9.6h-9.88v3.78h-4.1v-3.77h-2.11v14.97h-4.03v-3.78h-9.9v9.6h9.88v-3.77h4.03v14.94h2.11v-3.75h4.1v3.77h9.9v-9.6h-9.88v3.78h-4.1v-20.35h4.1v3.78h9.9z" transform="translate(-1025 -3648)" class="cls-1"/></svg><svg width="30" viewBox="0 0 29.938 31.97" height="32" id="drivers-on" y="114"><defs><style>.cls-1 {        fill: #ee2824;        fill-rule: evenodd;      }</style></defs><path id="drivers-on-icon-drivers-on.svg" d="m842.39 2014.7l-3.7 3.91-4.091-0.94-0.863-4.36 3.708-3.93a6.379 6.379 0 0 0 -1.808 -0.28 7.249 7.249 0 0 0 -7.047 7.45 7.807 7.807 0 0 0 0.968 3.76l-5.974 6.32a6.694 6.694 0 0 0 -3.52 -1.06 7.265 7.265 0 0 0 -7.047 7.46 7.766 7.766 0 0 0 0.249 1.9l3.7-3.91 4.091 0.94 0.863 4.36-3.709 3.93a6.409 6.409 0 0 0 1.809 0.29 7.267 7.267 0 0 0 7.048 -7.46 7.815 7.815 0 0 0 -0.794 -3.41l6.122-6.48a6.718 6.718 0 0 0 3.2 0.87 7.263 7.263 0 0 0 7.046 -7.46 7.718 7.718 0 0 0 -0.24 -1.8zm-28.722-5.06 0.586-0.61 3.608 2.12 1.863 1.99 1.391 2.49 13.084 14.02s1.053-1.12 1.461-1.55a0.5 0.5 0 0 1 0.758 -0.06l0.583 0.62c0.349 0.37 0 1.99 0 1.99l0.928 0.99s4.38 4.69 4.758 5.1a1.952 1.952 0 0 1 -0.006 1.99l-0.935 0.99s-0.585 0.61-0.938 0.99a1.636 1.636 0 0 1 -1.867 -0.01c-0.377-0.4-4.755-5.1-4.755-5.1l-0.931-0.99s-1.515 0.37-1.865-0.01-0.582-0.62-0.582-0.62a0.574 0.574 0 0 1 0.062 -0.81c0.41-0.43 1.461-1.54 1.461-1.54l-13.083-14.02-2.329-1.5-1.861-1.99-1.972-3.86z" transform="translate(-813.03 -2009)" class="cls-1"/></svg><svg width="30" viewBox="0 0 29.938 31.97" height="32" id="drivers" y="146"><defs><style>.cls-1 {        fill: #555;        fill-rule: evenodd;      }</style></defs><path id="drivers-icon-drivers.svg" d="m842.39 2014.7l-3.7 3.91-4.091-0.94-0.863-4.36 3.708-3.93a6.379 6.379 0 0 0 -1.808 -0.28 7.249 7.249 0 0 0 -7.047 7.45 7.807 7.807 0 0 0 0.968 3.76l-5.974 6.32a6.694 6.694 0 0 0 -3.52 -1.06 7.265 7.265 0 0 0 -7.047 7.46 7.766 7.766 0 0 0 0.249 1.9l3.7-3.91 4.091 0.94 0.863 4.36-3.709 3.93a6.409 6.409 0 0 0 1.809 0.29 7.267 7.267 0 0 0 7.048 -7.46 7.815 7.815 0 0 0 -0.794 -3.41l6.122-6.48a6.718 6.718 0 0 0 3.2 0.87 7.263 7.263 0 0 0 7.046 -7.46 7.718 7.718 0 0 0 -0.24 -1.8zm-28.722-5.06 0.586-0.61 3.608 2.12 1.863 1.99 1.391 2.49 13.084 14.02s1.053-1.12 1.461-1.55a0.5 0.5 0 0 1 0.758 -0.06l0.583 0.62c0.349 0.37 0 1.99 0 1.99l0.928 0.99s4.38 4.69 4.758 5.1a1.952 1.952 0 0 1 -0.006 1.99l-0.935 0.99s-0.585 0.61-0.938 0.99a1.636 1.636 0 0 1 -1.867 -0.01c-0.377-0.4-4.755-5.1-4.755-5.1l-0.931-0.99s-1.515 0.37-1.865-0.01-0.582-0.62-0.582-0.62a0.574 0.574 0 0 1 0.062 -0.81c0.41-0.43 1.461-1.54 1.461-1.54l-13.083-14.02-2.329-1.5-1.861-1.99-1.972-3.86z" transform="translate(-813.03 -2009)" class="cls-1"/></svg><svg width="30" viewBox="0 0 30 32" height="32" id="e-brochures-on" y="178"><defs><style>.cls-1 {        fill: #ee2824;        fill-rule: evenodd;      }</style></defs><path id="e-brochures-on-icon-e-brochures-on.svg" d="m833 1739v22h10v-22h-10zm4 18h-2v-2h2v2zm0-4h-2v-2h2v2zm0-4h-2v-2h2v2zm0-4h-2v-2h2v2zm4 12h-2v-2h2v2zm0-4h-2v-2h2v2zm0-4h-2v-2h2v2zm0-4h-2v-2h2v2zm-12-2h-2v-6l-2-4h-2v-4h-2v4h-2l-2 4v6h-2l-2 2v16h18v-16zm-6-6h2v2h-2v-2zm-4 0h2v2h-2v-2zm0 20h-2v-2h2v2zm0-4h-2v-2h2v2zm0-4h-2v-2h2v2zm0-8h2v2h-2v-2zm4 16h-2v-2h2v2zm0-4h-2v-2h2v2zm0-4h-2v-2h2v2zm0-8h2v2h-2v-2zm4 16h-2v-2h2v2zm0-4h-2v-2h2v2zm0-4h-2v-2l2.121-0.14z" transform="translate(-813 -1729)" class="cls-1"/></svg><svg width="30" viewBox="0 0 30 32" height="32" id="e-brochures" y="210"><defs><style>.cls-1 {        fill: #555;        fill-rule: evenodd;      }</style></defs><path id="e-brochures-icon-e-brochures.svg" d="m833 1739v22h10v-22h-10zm4 18h-2v-2h2v2zm0-4h-2v-2h2v2zm0-4h-2v-2h2v2zm0-4h-2v-2h2v2zm4 12h-2v-2h2v2zm0-4h-2v-2h2v2zm0-4h-2v-2h2v2zm0-4h-2v-2h2v2zm-12-2h-2v-6l-2-4h-2v-4h-2v4h-2l-2 4v6h-2l-2 2v16h18v-16zm-6-6h2v2h-2v-2zm-4 0h2v2h-2v-2zm0 20h-2v-2h2v2zm0-4h-2v-2h2v2zm0-4h-2v-2h2v2zm0-8h2v2h-2v-2zm4 16h-2v-2h2v2zm0-4h-2v-2h2v2zm0-4h-2v-2h2v2zm0-8h2v2h-2v-2zm4 16h-2v-2h2v2zm0-4h-2v-2h2v2zm0-4h-2v-2l2.121-0.14z" transform="translate(-813 -1729)" class="cls-1"/></svg><svg width="32" viewBox="0 0 32.062 32" height="32" id="fanless" y="242"><defs><style>.cls-1 {        fill: #666;        fill-rule: evenodd;      }</style></defs><path id="fanless-icon-fanless.svg" d="m704.12 3663a6.779 6.779 0 0 1 5.518 0.39 4.21 4.21 0 0 0 6.345 -4.3c-0.427-2.92-2.228-5.88-4.518-7.07-3.422-1.78-6.013-0.79-8.018 1.38a10.928 10.928 0 0 0 -2.793 6.32 0.846 0.846 0 0 1 -1.673 0.19 6.749 6.749 0 0 1 0.39 -5.51 4.2 4.2 0 0 0 -4.31 -6.33c-2.918 0.43-5.889 2.23-7.082 4.51-1.784 3.42-0.791 6 1.386 8a10.93 10.93 0 0 0 6.333 2.79 0.845 0.845 0 0 1 0.19 1.67 6.779 6.779 0 0 1 -5.518 -0.39 4.211 4.211 0 0 0 -6.346 4.3c0.428 2.92 2.229 5.88 4.519 7.07 3.423 1.78 6.013 0.79 8.018-1.38a10.928 10.928 0 0 0 2.793 -6.32 0.846 0.846 0 0 1 1.673 -0.19 6.746 6.746 0 0 1 -0.391 5.51 4.2 4.2 0 0 0 4.311 6.33c2.918-0.43 5.889-2.22 7.082-4.51 1.784-3.42 0.792-6-1.385-8a10.933 10.933 0 0 0 -6.334 -2.79 0.845 0.845 0 0 1 -0.19 -1.67zm-4.12 2.6a1.62 1.62 0 1 1 1.626 -1.62 1.62 1.62 0 0 1 -1.63 1.6z" transform="translate(-683.97 -3648)" class="cls-1"/></svg><svg width="31" viewBox="0 0 31 30" height="30" id="faqs-on" y="274"><defs><style>.cls-1 {        fill: #ee2824;        fill-rule: evenodd;      }</style></defs><path id="faqs-on-icon-faqs-on.svg" d="m839 2161h-2v2a4.844 4.844 0 0 1 -5 5h-9l-3 3v1a4.525 4.525 0 0 0 4 4h10l5 5v-5c1.875 0 4-2.5 4-4.38v-7.5c0-1.9-2.12-3.1-4-3.1zm-8.25-10h-15a4.029 4.029 0 0 0 -3.75 3.75v7.5a4.037 4.037 0 0 0 3.75 3.75v5.62l5.625-5.62h9.375c1.875 0 4.25-2.13 4.25-4v-7c-0.01-1.9-2.39-4-4.26-4z" transform="translate(-812 -2151)" class="cls-1"/></svg><svg width="31" viewBox="0 0 31 30" height="30" id="faqs" y="304"><defs><style>.cls-1 {        fill: #555;        fill-rule: evenodd;      }</style></defs><path id="faqs-icon-faqs.svg" d="m839 2161h-2v2a4.844 4.844 0 0 1 -5 5h-9l-3 3v1a4.525 4.525 0 0 0 4 4h10l5 5v-5c1.875 0 4-2.5 4-4.38v-7.5c0-1.9-2.12-3.1-4-3.1zm-8.25-10h-15a4.029 4.029 0 0 0 -3.75 3.75v7.5a4.037 4.037 0 0 0 3.75 3.75v5.62l5.625-5.62h9.375c1.875 0 4.25-2.13 4.25-4v-7c-0.01-1.9-2.39-4-4.26-4z" transform="translate(-812 -2151)" class="cls-1"/></svg><svg width="32" viewBox="0 0 32 30" height="30" id="firm-ward-on" y="334"><defs><style>.cls-1 {        fill: #ee2824;        fill-rule: evenodd;      }</style></defs><path id="firm-ward-on-icon-firm-ward-on.svg" d="m832 1940h-8v10h-4l8 8 8-8h-4v-10zm7.733 8h-3.73v2h2.412l2.561 6h-6.97a6 6 0 0 1 -12 0h-6.973l2.561-6h2.41v-2h-3.733l-4.27 10v12h32v-12z" transform="translate(-812 -1940)" class="cls-1"/></svg><svg width="32" viewBox="0 0 32 30" height="30" id="firm-ward" y="364"><defs><style>.cls-1 {        fill: #555;        fill-rule: evenodd;      }</style></defs><path id="firm-ward-icon-firm-ward.svg" d="m832 1940h-8v10h-4l8 8 8-8h-4v-10zm7.733 8h-3.73v2h2.412l2.561 6h-6.97a6 6 0 0 1 -12 0h-6.973l2.561-6h2.41v-2h-3.733l-4.27 10v12h32v-12z" transform="translate(-812 -1940)" class="cls-1"/></svg><svg width="32" viewBox="0 0 32 32" height="32" id="guide-on" y="394"><defs><style>.cls-1 {        fill: #ee2824;        fill-rule: evenodd;      }</style></defs><path id="guide-on-icon-guide-on.svg" d="m844 1884h-4v-5h2a1.966 1.966 0 0 1 2 1.87v3.1zm0 9h-4v5h2a2.053 2.053 0 0 0 2 -2v-3zm0-2h-4v-5h4v5zm-9.535-22h-16.46v32h16.526a3.722 3.722 0 0 0 3.474 -4v-24c0-2-1.58-4-3.54-4zm-0.57 12.37a1.048 1.048 0 0 1 -0.3 0.53 1.128 1.128 0 0 1 -0.6 0.23h-0.628c-0.281 0-0.153-0.41-0.153-0.76v-0.89c0-0.27-0.448 0.01-0.809 0.01h-6.29a2.025 2.025 0 0 0 -0.4 -0.11c-0.065 0.06-0.074 0-0.074 0.22v2.65c0 0.3-0.017 0.48 0 0.53a4.006 4.006 0 0 0 0.19 0.46l0.4 0.81a3.075 3.075 0 0 1 0.2 0.58 1.888 1.888 0 0 1 0.054 0.45v2.74a2.127 2.127 0 0 0 0.046 0.52 0.472 0.472 0 0 0 0.465 0.17h5.41a0.993 0.993 0 0 0 0.58 -0.15 0.835 0.835 0 0 0 0.229 -0.54v-1.54c0-0.22-0.171-0.2-0.247-0.28a1.783 1.783 0 0 0 -0.562 0.05h-1.712c-0.349 0 0-0.47 0-0.76v-0.6c0-0.27-0.363-0.28-0.048-0.28h3.216c0.418 0 1.043 0.06 1.043 0.44v4.12a1.5 1.5 0 0 1 -0.479 0.78 1.745 1.745 0 0 1 -0.88 0.4h-8.664a1.137 1.137 0 0 1 -0.673 -0.39 1.213 1.213 0 0 1 -0.252 -0.8v-10.43a0.646 0.646 0 0 1 0.218 -0.49 0.777 0.777 0 0 1 0.566 -0.19h8.946a1.35 1.35 0 0 1 0.775 0.19 0.953 0.953 0 0 1 0.443 0.49v1.84zm-21.89-8.4m4-3.95v32m0-32v32a4.2 4.2 0 0 1 -4 -3.85v-24.2a4.106 4.106 0 0 1 4 -4z" transform="translate(-812 -1869)" class="cls-1"/></svg><svg width="32" viewBox="0 0 32 32" height="32" id="guide" y="426"><defs><style>.cls-1 {        fill: #555;        fill-rule: evenodd;      }</style></defs><path id="guide-icon-guide.svg" d="m844 1884h-4v-5h2a1.966 1.966 0 0 1 2 1.87v3.1zm0 9h-4v5h2a2.053 2.053 0 0 0 2 -2v-3zm0-2h-4v-5h4v5zm-9.535-22h-16.46v32h16.526a3.722 3.722 0 0 0 3.474 -4v-24c0-2-1.58-4-3.54-4zm-0.57 12.37a1.048 1.048 0 0 1 -0.3 0.53 1.128 1.128 0 0 1 -0.6 0.23h-0.628c-0.281 0-0.153-0.41-0.153-0.76v-0.89c0-0.27-0.448 0.01-0.809 0.01h-6.29a2.025 2.025 0 0 0 -0.4 -0.11c-0.065 0.06-0.074 0-0.074 0.22v2.65c0 0.3-0.017 0.48 0 0.53a4.006 4.006 0 0 0 0.19 0.46l0.4 0.81a3.075 3.075 0 0 1 0.2 0.58 1.888 1.888 0 0 1 0.054 0.45v2.74a2.127 2.127 0 0 0 0.046 0.52 0.472 0.472 0 0 0 0.465 0.17h5.41a0.993 0.993 0 0 0 0.58 -0.15 0.835 0.835 0 0 0 0.229 -0.54v-1.54c0-0.22-0.171-0.2-0.247-0.28a1.783 1.783 0 0 0 -0.562 0.05h-1.712c-0.349 0 0-0.47 0-0.76v-0.6c0-0.27-0.363-0.28-0.048-0.28h3.216c0.418 0 1.043 0.06 1.043 0.44v4.12a1.5 1.5 0 0 1 -0.479 0.78 1.745 1.745 0 0 1 -0.88 0.4h-8.664a1.137 1.137 0 0 1 -0.673 -0.39 1.213 1.213 0 0 1 -0.252 -0.8v-10.43a0.646 0.646 0 0 1 0.218 -0.49 0.777 0.777 0 0 1 0.566 -0.19h8.946a1.35 1.35 0 0 1 0.775 0.19 0.953 0.953 0 0 1 0.443 0.49v1.84zm-21.89-8.4m4-3.95v32m0-32v32a4.2 4.2 0 0 1 -4 -3.85v-24.2a4.106 4.106 0 0 1 4 -4z" transform="translate(-812 -1869)" class="cls-1"/></svg><svg width="32" viewBox="0 0 32 32" height="32" id="manuals-on" y="458"><defs><style>.cls-1 {        fill: #ee2824;        fill-rule: evenodd;      }</style></defs><path id="manuals-on-icon-manuals-on.svg" d="m836 1799h-22v8h-2v6h2v4h-2v6h2v8h26v-32h-4zm-20 22h-2v-2h2v2zm0-10h-2v-2h2v2zm19.582 9.56a0.775 0.775 0 0 1 -0.138 0.46 0.448 0.448 0 0 1 -0.347 0.18h-0.572a0.48 0.48 0 0 1 -0.464 -0.6v-10.1a0.476 0.476 0 0 0 -0.464 -0.59h-3.211a0.875 0.875 0 0 0 -0.95 1.03v9.66a0.51 0.51 0 0 1 -0.55 0.6h-0.633a0.587 0.587 0 0 1 -0.424 -0.17 0.65 0.65 0 0 1 -0.168 -0.47v-9.62a0.886 0.886 0 0 0 -0.975 -1.03h-3.331a0.836 0.836 0 0 0 -0.551 0.13 0.859 0.859 0 0 0 -0.15 0.63v3.3a1.621 1.621 0 0 0 0.075 0.47 3.063 3.063 0 0 0 0.264 0.55l0.634 0.99a2.335 2.335 0 0 1 0.242 0.59 2.507 2.507 0 0 1 0.074 0.62v3.39a0.591 0.591 0 0 1 -0.2 0.44 0.771 0.771 0 0 1 -0.5 0.18h-1.838a0.518 0.518 0 0 1 -0.507 -0.64v-11.37a0.913 0.913 0 0 1 1.1 -0.95h5.238a1.575 1.575 0 0 1 1 0.25 1.05 1.05 0 0 1 0.306 0.87 1.086 1.086 0 0 1 0.3 -0.86 1.462 1.462 0 0 1 0.993 -0.26h4.688a1.085 1.085 0 0 1 0.761 0.27 0.891 0.891 0 0 1 0.3 0.66v11.39zm8.42 10.4h-2v-32h2v32z" transform="translate(-812 -1799)" class="cls-1"/></svg><svg width="32" viewBox="0 0 32 32" height="32" id="manuals" y="490"><defs><style>.cls-1 {        fill: #555;        fill-rule: evenodd;      }</style></defs><path id="manuals-icon-manuals.svg" d="m836 1799h-22v8h-2v6h2v4h-2v6h2v8h26v-32h-4zm-20 22h-2v-2h2v2zm0-10h-2v-2h2v2zm19.582 9.56a0.775 0.775 0 0 1 -0.138 0.46 0.448 0.448 0 0 1 -0.347 0.18h-0.572a0.48 0.48 0 0 1 -0.464 -0.6v-10.1a0.476 0.476 0 0 0 -0.464 -0.59h-3.211a0.875 0.875 0 0 0 -0.95 1.03v9.66a0.51 0.51 0 0 1 -0.55 0.6h-0.633a0.587 0.587 0 0 1 -0.424 -0.17 0.65 0.65 0 0 1 -0.168 -0.47v-9.62a0.886 0.886 0 0 0 -0.975 -1.03h-3.331a0.836 0.836 0 0 0 -0.551 0.13 0.859 0.859 0 0 0 -0.15 0.63v3.3a1.621 1.621 0 0 0 0.075 0.47 3.063 3.063 0 0 0 0.264 0.55l0.634 0.99a2.335 2.335 0 0 1 0.242 0.59 2.507 2.507 0 0 1 0.074 0.62v3.39a0.591 0.591 0 0 1 -0.2 0.44 0.771 0.771 0 0 1 -0.5 0.18h-1.838a0.518 0.518 0 0 1 -0.507 -0.64v-11.37a0.913 0.913 0 0 1 1.1 -0.95h5.238a1.575 1.575 0 0 1 1 0.25 1.05 1.05 0 0 1 0.306 0.87 1.086 1.086 0 0 1 0.3 -0.86 1.462 1.462 0 0 1 0.993 -0.26h4.688a1.085 1.085 0 0 1 0.761 0.27 0.891 0.891 0 0 1 0.3 0.66v11.39zm8.42 10.4h-2v-32h2v32z" transform="translate(-812 -1799)" class="cls-1"/></svg><svg id="p2c_logo" viewBox="0 0 68 29.031" width="68" height="29" y="522"><defs><style>.cls-1 {        fill: #919295;      }      .cls-1, .cls-2 {        fill-rule: evenodd;      }      .cls-2 {        fill: #ee2824;      }</style></defs><path id="p2c_logo-pc" d="m255.17 27.893a8.365 8.365 0 0 0 -8.42 8.307v12.42a8.366 8.366 0 0 0 8.423 8.305h12.83v-4.19h-12.83a4.145 4.145 0 0 1 -4.17 -4.117v-12.418a4.144 4.144 0 0 1 4.173 -4.116h12.83v-4.19h-12.83zm-42.347 12.42h-12.82v16.61h4.251v-12.423h8.576a8.306 8.306 0 1 0 0 -16.609h-12.83v4.19h12.827a4.115 4.115 0 1 1 0 8.232z" transform="translate(-200 -27.906)" class="cls-1"/><path id="p2c_logo-_2" d="m236.7 27.893h-22.7a8.591 8.591 0 0 1 5.818 4.19h16.88a4.116 4.116 0 1 1 0 8.23h-4.4a8.306 8.306 0 1 0 0 16.61h21.7a8.6 8.6 0 0 1 -5.82 -4.19h-15.88a4.116 4.116 0 1 1 0 -8.231h4.4a8.306 8.306 0 1 0 0 -16.609z" class="cls-2" transform="translate(-200 -27.906)" data-name="2"/></svg><svg width="48" viewBox="0 0 48.031 29" height="29" id="port" y="551"><defs><style>.cls-1 {        fill: #666;        fill-rule: evenodd;      }</style></defs><path id="port-icon-port.svg" d="m723 3877.1v-3.16h-13.58v-5.12h9.174v-3.16h-9.174v-4.63h-11.63a14.494 14.494 0 0 0 -14.378 12.91h-8.429v3.16h8.429a14.494 14.494 0 0 0 14.378 12.91h11.628v-4.59h9.174v-3.16h-9.174v-5.16h13.589zm-36.527-1.58a11.332 11.332 0 0 1 11.31 -11.33h8.473v22.66h-8.473a11.332 11.332 0 0 1 -11.3 -11.4z" transform="translate(-674.97 -3861)" class="cls-1"/></svg><svg width="32" viewBox="0 0 32 26" height="26" id="pos-img-on" y="580"><defs><style>.cls-1 {        fill: #ee2824;        fill-rule: evenodd;      }</style></defs><path id="pos-img-on-icon-pos-img-on.svg" d="m830.49 2095.5a2 2 0 1 1 -2 -2 2 2 0 0 1 2 2zm-6.49 6.5h14v-5.08l-2.216-4.02-3.01 6.5-1.77-1.8s-2.457 0.91-3.267 2.31a1.644 1.644 0 0 0 -1.99 0zm16-14v-6h-28v18h6v8h26v-20h-4zm-22 8h-2v-10h20v2h-18v8zm22 8h-18v-12h18v12z" transform="translate(-812 -2082)" class="cls-1"/></svg><svg width="32" viewBox="0 0 32 26" height="26" id="pos-img" y="606"><defs><style>.cls-1 {        fill: #555;        fill-rule: evenodd;      }</style></defs><path id="pos-img-icon-pos-img.svg" d="m830.49 2095.5a2 2 0 1 1 -2 -2 2 2 0 0 1 2 2zm-6.49 6.5h14v-5.08l-2.216-4.02-3.01 6.5-1.77-1.8s-2.457 0.91-3.267 2.31a1.644 1.644 0 0 0 -1.99 0zm16-14v-6h-28v18h6v8h26v-20h-4zm-22 8h-2v-10h20v2h-18v8zm22 8h-18v-12h18v12z" transform="translate(-812 -2082)" class="cls-1"/></svg><svg width="31" viewBox="0 0 30.656 33.093" height="33" id="pos" y="632"><defs><style>.cls-1 {        fill: #666;        fill-rule: evenodd;      }</style></defs><path id="pos-icon-pos.svg" d="m226.38 186.2l0.513-0.178a0.888 0.888 0 0 1 1.033 0.534l1.267 3.134a0.754 0.754 0 0 1 -0.567 0.9l-0.335 0.167zm-5.226 16.161s-0.037-0.055-0.094-0.147l-5.689 1.316a3.489 3.489 0 0 1 -4.254 -2.47l-5.139-13h-1.191s-1.666 0.334-1.466 4.368 0.8 6.135 0.133 9.3a6.427 6.427 0 0 1 -2.967 4.368l0.5 2.568a19.037 19.037 0 0 1 9.5 1.467 10.9 10.9 0 0 0 4.9 1.434 5.062 5.062 0 0 0 1.767 -0.239l6.533-1.929a1.014 1.014 0 0 0 0.734 -0.833l0.433-2.168s0.167-0.4-0.667-1.233c0.01-0.01-2.82-2.21-3.02-2.81zm9.767-5.4-7.134-17a2.239 2.239 0 0 0 -2.4 -1.468l-16.133 1.468c-1.412 0.128-0.533 2.2-0.533 2.2l7.333 18.555a2.478 2.478 0 0 0 3.067 1.852l15-3.468c1.65-0.48 0.79-2.14 0.79-2.14zm-16.636 3.774l-7.36-19.03 15.206-1.479 7.107 17.157z" transform="translate(-200.47 -178.47)" class="cls-1"/></svg><svg width="13" viewBox="0 0 13 13" height="13" id="power-on" y="665"><defs><style>.cls-1 {        fill: #ee2824;        fill-rule: evenodd;      }</style></defs><path id="power-on-icon-power-on.svg" d="m487.09 5062.1h-1.65v-8.1h1.65v8.13zm2.245-5.42a5.652 5.652 0 0 1 2.017 3.88 4.848 4.848 0 0 1 -9.694 0 5.5 5.5 0 0 1 1.572 -3.52c0.61-0.73-0.609-1.72-1.424-0.89a7.512 7.512 0 0 0 -1.8 4.42 6.5 6.5 0 0 0 13 0 8.147 8.147 0 0 0 -2.083 -4.69c-0.9-1-2.29 0.1-1.61 0.8z" transform="translate(-480 -5054)" class="cls-1"/></svg><svg width="13" viewBox="0 0 13 13" height="13" id="power" y="678"><defs><style>.cls-1 {        fill: #777;        fill-rule: evenodd;      }</style></defs><path id="power-icon-power.svg" d="m487.09 5062.1h-1.65v-8.1h1.65v8.13zm2.245-5.42a5.652 5.652 0 0 1 2.017 3.88 4.848 4.848 0 0 1 -9.694 0 5.5 5.5 0 0 1 1.572 -3.52c0.61-0.73-0.609-1.72-1.424-0.89a7.512 7.512 0 0 0 -1.8 4.42 6.5 6.5 0 0 0 13 0 8.147 8.147 0 0 0 -2.083 -4.69c-0.9-1-2.29 0.1-1.61 0.8z" transform="translate(-480 -5054)" class="cls-1"/></svg><svg width="40" viewBox="0 0 40 40" height="40" id="readability" y="691"><defs><style>.cls-1 {        fill: #666;        fill-rule: evenodd;      }</style></defs><path id="readability-icon-readability.svg" d="m376.98 4119.6l-6.668-6.67v5.6h-4.526v2.14h4.526v5.6zm-26.683 0v6.68h13.4v-13.4h-13.4v6.72zm2.127-4.54h9.08v9.08h-9.08v-9.08zm5.61 13.36h-2.14v4.5h-5.6l6.667 6.67 6.668-6.67h-5.6v-4.53zm-14.4-15.49-6.667 6.67 6.667 6.67v-5.6h4.527v-2.14h-4.527v-5.6zm12.265-2.14h2.14v-4.52h5.6l-6.668-6.67-6.667 6.67h5.6v4.52z" transform="translate(-336.97 -4099.7)" class="cls-1"/></svg><svg width="35" viewBox="0 0 35 40" height="40" id="security" y="731"><defs><style>.cls-1 {        fill: #666;        fill-rule: evenodd;      }</style></defs><path id="security-icon-security.svg" d="m1048 3857.5c-5 0-7.5-5-7.5-5s-2.5 5-7.5 5-10-7.5-10-7.5v17.5c0 7.5 5 17.5 17.5 22.5 12.5-5 17.5-15 17.5-22.5v-17.5s-5 7.5-10 7.5zm5 10c0 5.64-3.88 12.88-12.5 17.04-8.62-4.16-12.5-11.4-12.5-17.04v-6.22a11.6 11.6 0 0 0 5 1.22 12.513 12.513 0 0 0 7.5 -2.54 12.513 12.513 0 0 0 7.5 2.54 11.6 11.6 0 0 0 5 -1.22v6.22zm-12.5 14.23c6.9-3.76 10-9.76 10-14.23v-2.75a12.544 12.544 0 0 1 -2.5 0.25 14.947 14.947 0 0 1 -7.5 -2.05" transform="translate(-1023 -3850)" class="cls-1"/></svg><svg width="10" viewBox="0 0 10 15.97" height="16" id="thumb-arrow-left" y="771"><defs><style>.cls-1 {        fill: #666;        fill-rule: evenodd;      }</style></defs><path id="thumb-arrow-left-icon-thumb-arrow-left.svg" d="m219.61 2158a1.394 1.394 0 0 1 -0.984 -0.41l-7.63-7.6 7.629-7.6a1.4 1.4 0 0 1 1.961 0 1.361 1.361 0 0 1 0.007 1.94l-5.687 5.66 5.687 5.66a1.374 1.374 0 0 1 -0.99 2.4z" transform="translate(-211 -2142)" class="cls-1"/></svg><svg width="10" viewBox="0 0 9.969 16" height="16" id="thumb-arrow-right" y="787"><defs><style>.cls-1 {        fill: #666;        fill-rule: evenodd;      }</style></defs><path id="thumb-arrow-right-icon-thumb-arrow-right.svg" d="m645.39 2158a1.4 1.4 0 0 0 0.984 -0.41l7.629-7.61-7.629-7.61a1.4 1.4 0 0 0 -1.962 0 1.361 1.361 0 0 0 -0.006 1.94l5.687 5.67-5.687 5.68a1.361 1.361 0 0 0 0.006 1.94 1.375 1.375 0 0 0 0.98 0.5z" transform="translate(-644.03 -2142)" class="cls-1"/></svg><svg width="44" viewBox="0 0 44 45" height="45" id="vfd" y="803"><defs><style>.cls-1 {        fill: #666;        fill-rule: evenodd;      }</style></defs><path id="vfd-icon-vfd.svg" d="m1056.5 4105.5l0.7-0.24a1.2 1.2 0 0 1 1.4 0.73l1.71 4.26a1.02 1.02 0 0 1 -0.77 1.22l-0.45 0.23zm-7.08 21.97s-0.05-0.08-0.13-0.2l-7.71 1.79a4.739 4.739 0 0 1 -5.76 -3.36l-6.97-17.67h-1.61s-2.26 0.45-1.99 5.93 1.09 8.34 0.18 12.65a8.7 8.7 0 0 1 -4.02 5.93l0.68 3.49a25.714 25.714 0 0 1 12.87 2 14.753 14.753 0 0 0 6.64 1.94 6.551 6.551 0 0 0 2.4 -0.32l8.85-2.62a1.391 1.391 0 0 0 1 -1.13l0.58-2.95s0.23-0.54-0.9-1.68c0.1 0-3.8-3-4-3.8zm13.23-7.34-9.66-23.11a3.047 3.047 0 0 0 -3.26 -2l-21.86 2c-1.91 0.17-0.72 2.99-0.72 2.99l9.94 25.21c1.2 3.45 4.15 2.52 4.15 2.52l20.33-4.71c2.6-0.7 1.4-3 1.4-3zm-22.54 5.13-9.98-25.86 20.61-2.01 9.63 23.31zm16.39-19.76 0.7-0.24a1.2 1.2 0 0 1 1.4 0.73l1.71 4.26a1.02 1.02 0 0 1 -0.77 1.22l-0.45 0.23zm-35.31-4.49a2.241 2.241 0 0 0 -2.23 2.24v1.91a2.234 2.234 0 0 0 2.23 2.24h7.52l-2.52-6.39h-5z" transform="translate(-1019 -4095)" class="cls-1"/></svg><svg id="windows-premium" viewBox="0 0 40 30" width="40" height="30" y="848"><defs><style>.cls-1 {        fill: #ffc623;      }      .cls-1, .cls-2 {        fill-rule: evenodd;      }      .cls-2 {        fill: #00adef;      }</style></defs><path id="windows-premium-premium" d="m534.24 708.47v0.08l0.092-0.238 3.224 3.944 0.044 0.2h0.24c0-1.77-0.187-2.051-1.1-2.973a8.427 8.427 0 0 0 -2.59 -1.49l0.092 0.476zm4.96 0.878-0.08 0.08 0.08-0.08h0.16l-0.08 5.187-0.08-0.08-0.08-0.079-0.08-0.081-0.08-0.079 0.08 0.079 0.08 0.081 0.08 0.079 0.08 0.08 0.223 0.282 0.9-1.32 0.08-0.319 0.08-0.718v-0.16c0-1.4-0.883-2.385-1.12-3.272h-0.15l-0.09 0.316zm-31.68 3.75c0.112 0.177 0.153 0.5 0.291 0.748 0.12 0.21 0.3 0.409 0.429 0.609l0.08 0.08 0.08 0.08 0.08 0.079h0.08v-5.586a7.849 7.849 0 0 0 -1.12 3.192v0.24a4.328 4.328 0 0 0 0.08 0.558zm4.16-0.478-0.08 0.079h-0.08l-0.08 0.08a3.434 3.434 0 0 0 -2.4 3.432h0.16l3.92-3.911c-0.121-0.313-1.119 0.245-1.44 0.32zm-5.84 4.468-0.1-0.875 0.018-0.242a19.607 19.607 0 0 1 0.48 -2.553l0.24 0.159 0.914 5.261 0.126-0.073 0.08-0.08-0.08 0.08-0.075 0.24c-0.9-0.208-1.2-1.339-1.605-1.917zm29.038-4.708v-0.239l1.44 0.479 0.08 0.079h0.08l0.08 0.08h0.08l0.08 0.08a3.367 3.367 0 0 1 2.24 3.352h-0.16l-3.778-3.892-0.142 0.061zm5.6 6.464 0.134-0.084l0.99-5.26 0.156-0.091a20.32 20.32 0 0 1 0.484 2.565v0.319l-0.08 0.719c-0.67 1.053-0.281 1.167-1.52 2l-0.16-0.16zm-3.36-2.473 2.72 4.708h0.16l0.08-0.239a4.37 4.37 0 0 0 0.08 -0.559v-0.319a4.334 4.334 0 0 0 -2.24 -3.273l-0.758-0.538-0.042 0.22zm-27.038 0.318 0.88-0.478-0.08 0.4v-0.32l-2.622 4.56 0.06 0.15-0.319 0.091-0.081-1.527a4.383 4.383 0 0 1 2.16 -2.874zm30.318 6.145c0.237 0.586 1.731-0.617 1.9-0.818 0.729-0.869 0.6-1.532 0.981-2.134l0.156-1.768-0.156 0.092-2.88 4.628zm-35.678-2.952c0.348 0.546 0.288 1.382 0.938 2.1 0.757 0.832 1.02 0.655 1.942 1.1v-0.24l-2.8-4.628-0.274-0.077 0.194 1.753zm5.28 0.71l-0.08 0.08c-0.9 1.345-1.36 1.344-1.36 3.671l0.56 0.957 1.524-5.114 0.156 0.087-0.047-0.448-0.75 0.77zm-5.76 2.554-0.24-0.4v-0.08h0.24l4.325 3.264 0.075-0.152v0.319a1.151 1.151 0 0 1 -0.4 0.08c-2.316 0-3.2-1.524-4-3.032zm32.958-2.873v-0.4l0.48 0.4 0.08 0.08 0.08 0.079 0.08 0.08 0.08 0.08 0.08 0.08 0.08 0.08c0.865 1.287 1.28 1.4 1.28 3.591l-0.56 0.957-1.524-5.114-0.156 0.087zm2.16 5.586 0.133 0.043 4.267-3.235h0.24v0.08l-0.24 0.4c-0.675 1.273-1.775 3.032-3.68 3.032a0.763 0.763 0 0 1 -0.72 -0.239v-0.08zm-29.6 2.155a4.729 4.729 0 0 1 0.531 -2.5 5.487 5.487 0 0 1 1.309 -1.727v0.239l-1.04 5.347-0.156 0.092-0.644-1.448zm-4.88-1.437c1 1.145 1.711 2.713 3.84 2.713h0.08a6.154 6.154 0 0 0 0.8 -0.159c0.235-0.09 0.176-0.146 0-0.4-0.133 0.345-0.836-0.24-1.055-0.384-0.355-0.234-0.809-0.435-1.183-0.656a17.908 17.908 0 0 1 -2.241 -1.345l0.639-0.089h-1.044l0.164 0.317zm31.518-2.554 1.04 5.347h0.16l0.64-1.6a4.421 4.421 0 0 0 -0.561 -2.313 5.417 5.417 0 0 0 -1.279 -1.677v0.239zm1.92 4.789v0.319l1.12 0.159a3.505 3.505 0 0 0 2.222 -0.975 19.968 19.968 0 0 0 1.458 -1.738l0.16-0.319h-1.12l0.759 0.149-4.443 2.491-0.156-0.086zm-26.158 1.436c0.462 0.665 0.243 1.09 1.12 1.676l0.08-5.506-0.08-0.24c-0.739 0.54-1.12 2.655-1.12 4.07zm-5.12-0.4 5.02 1.756 0.1-0.08v0.239l-0.08 0.08a4.078 4.078 0 0 1 -1.28 0.319c-2.167 0-2.615-1.23-3.76-2l-0.08-0.08-0.08-0.079-0.08-0.08v-0.08h0.24zm28.8 1.6v0.319a2.463 2.463 0 0 0 1.36 0.4h0.32c1.36 0 3.127-1.491 3.68-2.314l-0.4-0.08 0.173 0.138-5.053 1.7-0.08-0.159zm-1.2-4.948 0.09-0.316c0.7 0.516 1.11 2.674 1.11 4.067-0.463 0.665-0.243 1.09-1.12 1.676l-0.08-5.427zm-19.678 4.869a5.184 5.184 0 0 0 0.738 1.577 3.022 3.022 0 0 0 1.341 0.976v-0.159l-1.84-5.27c-0.364 0.522-0.24 1.989-0.24 2.874zm16 2.394v0.159a2.741 2.741 0 0 0 1.342 -0.975 5.582 5.582 0 0 0 0.737 -1.578l-0.159-2.794-1.92 5.188zm1.84-0.081 5.279-0.717 0.256 0.1-0.176 0.144a7.1 7.1 0 0 1 -3.12 1.436h-0.64a3.13 3.13 0 0 1 -1.681 -0.718l-0.075-0.153 0.156-0.087zm-22.959-0.478-0.164-0.174 0.324-0.065c0.137 0.337 2.12 0.436 2.562 0.476 0.831 0.075 1.944 0.322 2.718 0.322v0.159a2.984 2.984 0 0 1 -1.92 0.718h-0.32a6.507 6.507 0 0 1 -3.2 -1.436zm8.079-1.437a23.255 23.255 0 0 0 1.3 2.137 2.887 2.887 0 0 0 2.3 1.135h0.64v-0.558l-0.091 0.317a29.944 29.944 0 0 1 -3.989 -3.429h-0.24l0.08 0.4zm7.92 3.113v0.159h0.8a3 3 0 0 0 2.181 -1.175 18.548 18.548 0 0 0 1.258 -2.1l0.1-0.395h-0.336l0.086 0.155-4.086 3.356zm-12.4 0.878-0.094 0.093 0.088 0.026 5.285-0.838 0.172 0.09-0.172 0.23a2.97 2.97 0 0 1 -2.16 1.2h-0.96a6.736 6.736 0 0 1 -2.08 -0.479l-0.338-0.1 0.258-0.222zm15.679-0.559 0.159-0.16 5.44 0.878-0.24 0.16a8.236 8.236 0 0 1 -2.64 0.558c-1.7 0-1.938-0.914-2.719-1.436zm-3.68 1.037h-0.16l0.16 0.4c0.584 0.427 1.119 1.357 2.32 1.357h1.28a8.229 8.229 0 0 0 1.6 -0.319h0.239l-0.4-0.4-0.08-0.08-0.081-0.08 0.081 0.08 0.08 0.08 0.173 0.173-0.086 0.035-5.127-1.246zm-8 1.118 0.08-0.08 0.08-0.08 0.08-0.08-0.08 0.08-0.08 0.08-0.08 0.08-0.364 0.275 0.284 0.044 1.92 0.319h0.64c1.747 0 1.85-0.829 2.64-1.357l0.181-0.388-0.181-0.011-5.2 1.269 0.081-0.151zm-7.279-24.9c0-1.636 0.195-2.112 1.058-2.935a7.573 7.573 0 0 1 2.542 -1.454l-3.44 4.389h-0.16zm0.16 0 3.44-4.389v0.558a12.424 12.424 0 0 0 -0.41 1.428 8.041 8.041 0 0 1 -0.631 1.206 3.188 3.188 0 0 1 -2.4 1.2zm23.918-3.91 0.092-0.238 3.224 3.944 0.044 0.2c-2.219 0-2.933-2.082-3.36-3.91zm-25.68 6.15v-5.586l0.156-0.092c0.177 0.752 1.163 2.1 1.044 3.125l-0.08 0.957c-0.445 0.639-0.306 1.053-1.12 1.6h-0.08l-0.08-0.079-0.08-0.08-0.08-0.08 0.08 0.08 0.08 0.08 0.08 0.079h0.08zm30.558-5.266 0.08-0.08h0.16l-0.08 5.187-0.08-0.08-0.08-0.079-0.08-0.081-0.08-0.079-0.72-1.357a6.3 6.3 0 0 1 0.88 -3.431zm-29.92 6.78l3.92-3.911-0.08 0.32c-0.844 1.755-1.114 3.591-3.84 3.591zm30.638 1.117a5.628 5.628 0 0 1 1.76 -3.831l-0.986 5.263-0.134 0.084-0.64-1.516zm-4.96-4.948 0.142-0.061 3.778 3.892c-2.736 0-2.993-1.831-3.84-3.591l-0.08-0.24zm-27.358 6.385-0.126 0.073-0.914-5.261a5.878 5.878 0 0 1 1.6 2.953 2.835 2.835 0 0 1 -0.48 2.155l-0.08 0.08zm29.6-1.437v-0.957l2.72 4.708a2.95 2.95 0 0 1 -1.741 -0.977 6.193 6.193 0 0 1 -0.9 -1.816l-0.08-0.958zm-28.8 3.68a2.482 2.482 0 0 0 1.621 -0.936 7.246 7.246 0 0 0 0.859 -1.7l0.08-1.756v-0.32l-2.622 4.56 0.06 0.16zm31.918 1.436 0.16 0.4 2.88-4.628a8.288 8.288 0 0 0 -2.1 1.5 3.456 3.456 0 0 0 -0.939 2.734zm-32.638 0.4 0.08-0.079 0.08-0.719v-0.319c0-1.58-1.876-2.939-2.96-3.511l2.8 4.628zm29.6-2.553 0.156-0.087 1.524 5.114a2.3 2.3 0 0 1 -1.265 -0.973 14.406 14.406 0 0 1 -0.655 -1.5l0.24-2.553zm-28.078 5.027c1.1-0.255 1.235-1.152 1.76-1.755l0.16-0.639-0.24-2.633-0.156-0.087-1.524 5.114zm32.238-2.075 2.4-0.558-4.267 3.235-0.133-0.043a2.88 2.88 0 0 1 1.6 -2.394l0.08-0.08h0.08l0.08-0.08h0.08l0.08-0.08zm-32.718 2.554-0.075 0.152-4.325-3.264 2.4 0.558 0.08 0.08h0.08l0.08 0.08h0.08l0.08 0.08a2.972 2.972 0 0 1 1.6 2.314zm1.92 3.591 1.04-5.347a7.586 7.586 0 0 1 0.48 3.352 9.5 9.5 0 0 1 -0.591 1.167 3.446 3.446 0 0 1 -0.929 0.828zm25.358-2c0.537 0.845 0.39 1.4 1.52 2l-1.04-5.347a8.17 8.17 0 0 0 -0.56 2.315v0.478a4.319 4.319 0 0 0 0.08 0.559zm-26.32 1.36c-0.133 0.345-0.836-0.24-1.055-0.384-0.355-0.234-0.809-0.435-1.183-0.656a17.908 17.908 0 0 1 -2.241 -1.345l0.639-0.089 0.8 0.08 1.12 0.319a2.845 2.845 0 0 1 1.92 2.075zm31.838-2.394 0.72-0.08 0.759 0.149-4.443 2.491-0.156-0.086c0.464-0.964 0.808-1.878 2-2.155l1.12-0.319zm-7.839 3.91a4.757 4.757 0 0 0 1.119 1.676l-0.08-5.427c-0.714 0.522-1.039 2.394-1.039 3.751zm-20.319 1.676 0.08-5.506a6.02 6.02 0 0 1 1.04 3.67c-0.133 0.209-0.239 0.691-0.454 1.064a2.116 2.116 0 0 1 -0.666 0.772zm-1.12-0.4-0.1 0.08-5.02-1.756 0.88-0.16 0.88-0.079h0.32a4.549 4.549 0 0 1 0.56 0.079l0.72 0.16 0.16 0.08a3.021 3.021 0 0 1 1.6 1.6zm26.158-1.836a4.549 4.549 0 0 1 0.56 -0.079h0.64a4.549 4.549 0 0 1 0.56 0.079l0.72 0.08 0.173 0.138-5.053 1.7-0.08-0.159a3.485 3.485 0 0 1 1.6 -1.516l0.08-0.08 0.8-0.16zm-7.76 3.193a4.56 4.56 0 0 1 -0.079 -0.559v-0.08c0-1.354 1.969-3.921 2.4-3.671l-1.92 5.188-0.4-0.878zm-4.719 1.755a2.988 2.988 0 0 1 1.337 -2.257 4.522 4.522 0 0 1 1.221 -0.617c0.346-0.134 1.182-0.274 1.442-0.4l0.086 0.155-4.086 3.356v-0.24zm-8.8-0.877l-1.84-5.26a7.485 7.485 0 0 1 1.6 1.755c0.627 0.886 0.638 1.239 0.638 2.715l-0.08 0.318-0.32 0.48zm17.6-1.357 0.4-0.08h0.88l1.28 0.319 0.88 0.32-5.279 0.717a2.721 2.721 0 0 1 1.839 -1.276zm-24 0.319 1.6-0.4h0.72l0.4 0.08a2.868 2.868 0 0 1 1.92 1.357c-0.774 0-1.887-0.247-2.718-0.322-0.442-0.04-2.425-0.139-2.562-0.476l0.64-0.24zm11.519 1.756-0.091 0.317a29.944 29.944 0 0 1 -3.989 -3.429c1.807 0.42 3.913 1.108 4.08 3.112zm-8.719 1.277-0.094 0.093 0.088 0.026 5.285-0.838a2.634 2.634 0 0 0 -1.68 -0.718h-0.64a6.014 6.014 0 0 0 -2.96 1.437zm15.838-0.719 5.44 0.878a5.84 5.84 0 0 0 -3.2 -1.6h-0.641a2.552 2.552 0 0 0 -1.6 0.718zm-11.6 2.075-0.08 0.08-0.08 0.08-0.08 0.08-0.081 0.151 5.2-1.269a2.979 2.979 0 0 0 -1.92 -0.638 5.314 5.314 0 0 0 -2.96 1.516zm7.76-0.878 5.127 1.246 0.086-0.035-0.173-0.173-0.08-0.08-0.081-0.08a5.315 5.315 0 0 0 -2.959 -1.516 2.9 2.9 0 0 0 -1.92 0.638zm-1.589-1.492a0.7 0.7 0 1 1 -0.707 0.705 0.7 0.7 0 0 1 0.71 -0.71z" transform="translate(-504 -708)" class="cls-1"/><path id="windows-premium-windows" d="m516 714.26l6.539-0.888v6.289l-6.54 0.04zm6.536 6.126v6.295l-6.536-0.9v-5.441zm0.793-7.13l8.67-1.26v7.587l-8.67 0.069v-6.4zm8.67 7.19v7.55l-8.67-1.22-0.012-6.347z" transform="translate(-504 -708)" class="cls-2"/></svg><svg width="26" viewBox="0 0 26 26" height="26" id="windows" y="878"><defs><style>.cls-1 {        fill: #00adef;        fill-rule: evenodd;      }</style></defs><path id="windows-icon-windows.svg" d="m270 713.68l10.626-1.443v10.22l-10.622 0.06zm10.621 9.954 0.008 10.229-10.621-1.456v-8.841zm1.288-11.586l14.09-2.04v12.329l-14.09 0.112v-10.39zm14.09 11.69v12.27l-14.09-1.983-0.02-10.313z" transform="translate(-270 -710)" class="cls-1"/></svg></svg>
