<svg xmlns="http://www.w3.org/2000/svg" width="44" height="45" viewBox="0 0 44 45">
  <defs>
    <style>
      .cls-1 {
        fill: #666;
        fill-rule: evenodd;
      }
    </style>
  </defs>
  <path id="icon-2nd-display.svg" class="cls-1" d="M716.206,4109.15l0.624-.21a1.069,1.069,0,0,1,1.255.65l1.539,3.81a0.91,0.91,0,0,1-.688,1.09l-0.407.2Zm-6.349,19.65s-0.045-.07-0.114-0.18l-6.912,1.6a4.4,4.4,0,0,1-1.1.14,4.237,4.237,0,0,1-4.074-3.14l-6.244-15.81H689.97s-2.025.41-1.782,5.31c0,0,.972,7.46.162,11.31a7.819,7.819,0,0,1-3.605,5.31l0.608,3.12a23.168,23.168,0,0,1,11.543,1.78,13.208,13.208,0,0,0,5.954,1.75,6.5,6.5,0,0,0,2.147-.29l7.938-2.35a1.227,1.227,0,0,0,.891-1.01l0.526-2.64s0.2-.48-0.809-1.5C713.543,4132.2,710.1,4129.53,709.857,4128.8Zm11.867-6.57-8.668-20.67a2.712,2.712,0,0,0-2.916-1.78l-19.6,1.78c-1.717.16-.649,2.68-0.649,2.68l8.911,22.55c1.078,3.08,3.726,2.25,3.726,2.25l18.226-4.21C722.777,4124.26,721.724,4122.23,721.724,4122.23Zm-20.214,4.59-8.945-23.13,18.476-1.8,8.636,20.86Zm14.7-17.67,0.624-.21a1.069,1.069,0,0,1,1.255.65l1.539,3.81a0.91,0.91,0,0,1-.688,1.09l-0.407.2Zm-28.094-5.96s-0.533-2.57,1.184-2.72l14.2-1.3,0.583-1.74a2.431,2.431,0,0,0-2.43-2.43l-15.391.61c-1.342,0-2.079,1.05-2.43,2.43L678,4113.44a2.425,2.425,0,0,0,2.43,2.43h6.507c-0.018-.01-0.041-1.46-0.041-1.46,0.446-4.13,2.028-4.08,2.028-4.08l1.82-.03" transform="translate(-678 -4095)"/>
</svg>
