<svg xmlns="http://www.w3.org/2000/svg" width="25" height="30" viewBox="0 0 25 30">
  <defs>
    <style>
      .cls-1 {
        fill: #a4c639;
        fill-rule: evenodd;
      }
    </style>
  </defs>
  <path id="icon-android.svg" class="cls-1" d="M397.512,730.961h-2.179v4.261a1.766,1.766,0,1,1-3.531,0v-4.261h-2.59v4.261a1.765,1.765,0,1,1-3.529,0v-4.261H383.5a1.216,1.216,0,0,1-1.211-1.221V717.127c3.674-.014,12.243-0.014,16.434,0V729.74A1.215,1.215,0,0,1,397.512,730.961Zm-3.03-21.116a8.487,8.487,0,0,1,4.321,6.49h-16.6a8.489,8.489,0,0,1,4.252-6.449l-1.247-2.449a0.283,0.283,0,0,1,.122-0.378,0.277,0.277,0,0,1,.375.122l1.245,2.445a8.176,8.176,0,0,1,7.029-.034l1.4-2.452a0.276,0.276,0,0,1,.381-0.1,0.28,0.28,0,0,1,.1.382Zm-8.413,2.834a0.69,0.69,0,1,0,.692-0.693A0.692,0.692,0,0,0,386.069,712.679Zm8.195,0.7a0.694,0.694,0,1,0-.69-0.7A0.691,0.691,0,0,0,394.264,713.374ZM403,726.32a1.77,1.77,0,0,1-1.764,1.777h0a1.771,1.771,0,0,1-1.766-1.777v-7.779a1.769,1.769,0,0,1,1.766-1.777h0A1.769,1.769,0,0,1,403,718.541v7.779Zm-21.471,0a1.771,1.771,0,0,1-1.763,1.777h0A1.771,1.771,0,0,1,378,726.32v-7.779a1.769,1.769,0,0,1,1.766-1.777h0a1.77,1.77,0,0,1,1.763,1.777v7.779Z" transform="translate(-378 -707)"/>
</svg>
