<svg xmlns="http://www.w3.org/2000/svg" width="29.938" height="31.97" viewBox="0 0 29.938 31.97">
  <defs>
    <style>
      .cls-1 {
        fill: #555;
        fill-rule: evenodd;
      }
    </style>
  </defs>
  <path id="icon-drivers.svg" class="cls-1" d="M842.39,2014.68l-3.7,3.91-4.091-.94-0.863-4.36,3.708-3.93a6.379,6.379,0,0,0-1.808-.28,7.249,7.249,0,0,0-7.047,7.45,7.807,7.807,0,0,0,.968,3.76l-5.974,6.32a6.694,6.694,0,0,0-3.52-1.06,7.265,7.265,0,0,0-7.047,7.46,7.766,7.766,0,0,0,.249,1.9l3.7-3.91,4.091,0.94,0.863,4.36-3.709,3.93a6.409,6.409,0,0,0,1.809.29,7.267,7.267,0,0,0,7.048-7.46,7.815,7.815,0,0,0-.794-3.41l6.122-6.48a6.718,6.718,0,0,0,3.2.87,7.263,7.263,0,0,0,7.046-7.46A7.718,7.718,0,0,0,842.39,2014.68Zm-28.722-5.06,0.586-.61,3.608,2.12,1.863,1.99,1.391,2.49,13.084,14.02s1.053-1.12,1.461-1.55a0.5,0.5,0,0,1,.758-0.06l0.583,0.62c0.349,0.37,0,1.99,0,1.99l0.928,0.99s4.38,4.69,4.758,5.1a1.952,1.952,0,0,1-.006,1.99l-0.935.99s-0.585.61-.938,0.99a1.636,1.636,0,0,1-1.867-.01c-0.377-.4-4.755-5.1-4.755-5.1l-0.931-.99s-1.515.37-1.865-.01-0.582-.62-0.582-0.62a0.574,0.574,0,0,1,.062-0.81c0.41-.43,1.461-1.54,1.461-1.54l-13.083-14.02-2.329-1.5-1.861-1.99-1.972-3.86Z" transform="translate(-813.031 -2009)"/>
</svg>
