<svg xmlns="http://www.w3.org/2000/svg" width="32.062" height="32" viewBox="0 0 32.062 32">
  <defs>
    <style>
      .cls-1 {
        fill: #666;
        fill-rule: evenodd;
      }
    </style>
  </defs>
  <path id="icon-fanless.svg" class="cls-1" d="M704.116,3662.98a6.779,6.779,0,0,1,5.518.39,4.21,4.21,0,0,0,6.345-4.3c-0.427-2.92-2.228-5.88-4.518-7.07-3.422-1.78-6.013-.79-8.018,1.38a10.928,10.928,0,0,0-2.793,6.32,0.846,0.846,0,0,1-1.673.19,6.749,6.749,0,0,1,.39-5.51,4.2,4.2,0,0,0-4.31-6.33c-2.918.43-5.889,2.23-7.082,4.51-1.784,3.42-.791,6,1.386,8a10.93,10.93,0,0,0,6.333,2.79,0.845,0.845,0,0,1,.19,1.67,6.779,6.779,0,0,1-5.518-.39,4.211,4.211,0,0,0-6.346,4.3c0.428,2.92,2.229,5.88,4.519,7.07,3.423,1.78,6.013.79,8.018-1.38a10.928,10.928,0,0,0,2.793-6.32,0.846,0.846,0,0,1,1.673-.19,6.746,6.746,0,0,1-.391,5.51,4.2,4.2,0,0,0,4.311,6.33c2.918-.43,5.889-2.22,7.082-4.51,1.784-3.42.792-6-1.385-8a10.933,10.933,0,0,0-6.334-2.79,0.845,0.845,0,0,1-.19-1.67h0ZM700,3665.62h0a1.62,1.62,0,1,1,1.626-1.62A1.62,1.62,0,0,1,700,3665.62Z" transform="translate(-683.969 -3648)"/>
</svg>
