<svg xmlns="http://www.w3.org/2000/svg" width="31" height="30" viewBox="0 0 31 30">
  <defs>
    <style>
      .cls-1 {
        fill: #ee2824;
        fill-rule: evenodd;
      }
    </style>
  </defs>
  <path id="icon-faqs-on.svg" class="cls-1" d="M839,2161h-2v2a4.844,4.844,0,0,1-5,5h-9l-3,3v1a4.525,4.525,0,0,0,4,4h10l5,5v-5c1.875,0,4-2.5,4-4.38v-7.5C843,2162.25,840.875,2161,839,2161Zm-8.25-10h-15a4.029,4.029,0,0,0-3.75,3.75v7.5a4.037,4.037,0,0,0,3.75,3.75h0v5.62l5.625-5.62h9.375c1.875,0,4.25-2.13,4.25-4v-7C835,2153.12,832.625,2151,830.75,2151Z" transform="translate(-812 -2151)"/>
</svg>
