<svg xmlns="http://www.w3.org/2000/svg" width="32" height="32" viewBox="0 0 32 32">
  <defs>
    <style>
      .cls-1 {
        fill: #555;
        fill-rule: evenodd;
      }
    </style>
  </defs>
  <path id="icon-guide.svg" class="cls-1" d="M844,1884h-4v-5h2a1.966,1.966,0,0,1,2,1.87V1884Zm0,9h-4v5h2a2.053,2.053,0,0,0,2-2v-3Zm0-2h-4v-5h4v5Zm-9.535-22H818v32h16.526a3.722,3.722,0,0,0,3.474-4v-24C838,1871,836.42,1869,834.465,1869Zm-0.57,12.37a1.048,1.048,0,0,1-.3.53,1.128,1.128,0,0,1-.6.23h-0.628c-0.281,0-.153-0.41-0.153-0.76v-0.89c0-.27-0.448.01-0.809,0.01h-6.29a2.025,2.025,0,0,0-.4-0.11c-0.065.06-.074,0-0.074,0.22v2.65c0,0.3-.017.48,0,0.53a4.006,4.006,0,0,0,.19.46l0.4,0.81a3.075,3.075,0,0,1,.2.58,1.888,1.888,0,0,1,.054.45v2.74a2.127,2.127,0,0,0,.046.52,0.472,0.472,0,0,0,.465.17H831.4a0.993,0.993,0,0,0,.58-0.15,0.835,0.835,0,0,0,.229-0.54v-1.54c0-.22-0.171-0.2-0.247-0.28a1.783,1.783,0,0,0-.562.05h-1.712c-0.349,0,0-.47,0-0.76v-0.6c0-.27-0.363-0.28-0.048-0.28h3.216c0.418,0,1.043.06,1.043,0.44v4.12a1.5,1.5,0,0,1-.479.78,1.745,1.745,0,0,1-.88.4h-8.664a1.137,1.137,0,0,1-.673-0.39,1.213,1.213,0,0,1-.252-0.8v-10.43a0.646,0.646,0,0,1,.218-0.49,0.777,0.777,0,0,1,.566-0.19h8.946a1.35,1.35,0,0,1,.775.19,0.953,0.953,0,0,1,.443.49v1.84ZM812,1872.95m4-3.95v32h0m0-32h0v32h0a4.2,4.2,0,0,1-4-3.85v-24.2A4.106,4.106,0,0,1,816,1869Z" transform="translate(-812 -1869)"/>
</svg>
