<svg xmlns="http://www.w3.org/2000/svg" width="32" height="32" viewBox="0 0 32 32">
  <defs>
    <style>
      .cls-1 {
        fill: #ee2824;
        fill-rule: evenodd;
      }
    </style>
  </defs>
  <path id="icon-manuals-on.svg" class="cls-1" d="M836,1799H814v8h-2v6h2v4h-2v6h2v8h26v-32h-4Zm-20,22h-2v-2h2v2Zm0-10h-2v-2h2v2Zm19.582,9.56a0.775,0.775,0,0,1-.138.46,0.448,0.448,0,0,1-.347.18h-0.572a0.48,0.48,0,0,1-.464-0.6v-10.1a0.476,0.476,0,0,0-.464-0.59h-3.211a0.875,0.875,0,0,0-.95,1.03v9.66a0.51,0.51,0,0,1-.55.6h-0.633a0.587,0.587,0,0,1-.424-0.17,0.65,0.65,0,0,1-.168-0.47v-9.62a0.886,0.886,0,0,0-.975-1.03h-3.331a0.836,0.836,0,0,0-.551.13,0.859,0.859,0,0,0-.15.63v3.3a1.621,1.621,0,0,0,.075.47,3.063,3.063,0,0,0,.264.55l0.634,0.99a2.335,2.335,0,0,1,.242.59,2.507,2.507,0,0,1,.074.62v3.39a0.591,0.591,0,0,1-.2.44,0.771,0.771,0,0,1-.5.18h-1.838a0.518,0.518,0,0,1-.507-0.64v-11.37a0.913,0.913,0,0,1,1.1-.95h5.238a1.575,1.575,0,0,1,1,.25,1.05,1.05,0,0,1,.306.87,1.086,1.086,0,0,1,.3-0.86,1.462,1.462,0,0,1,.993-0.26h4.688a1.085,1.085,0,0,1,.761.27,0.891,0.891,0,0,1,.3.66v11.39ZM844,1831h-2v-32h2v32Z" transform="translate(-812 -1799)"/>
</svg>
