<svg id="p2c_logo.svg" xmlns="http://www.w3.org/2000/svg" width="68" height="29.031" viewBox="0 0 68 29.031">
  <defs>
    <style>
      .cls-1 {
        fill: #919295;
      }

      .cls-1, .cls-2 {
        fill-rule: evenodd;
      }

      .cls-2 {
        fill: #ee2824;
      }
    </style>
  </defs>
  <path id="pc" class="cls-1" d="M255.173,27.893A8.365,8.365,0,0,0,246.75,36.2v12.42a8.366,8.366,0,0,0,8.423,8.305H268v-4.19H255.173A4.145,4.145,0,0,1,251,48.618V36.2a4.144,4.144,0,0,1,4.173-4.116H268v-4.19H255.173Zm-42.347,12.42H200v16.61h4.251V44.5h8.576a8.306,8.306,0,1,0,0-16.609H200v4.19h12.827A4.115,4.115,0,1,1,212.826,40.313Z" transform="translate(-200 -27.906)"/>
  <path id="_2" data-name="2" class="cls-2" d="M236.7,27.893H214a8.591,8.591,0,0,1,5.818,4.19H236.7a4.116,4.116,0,1,1,0,8.23H232.3a8.306,8.306,0,1,0,0,16.61H254a8.6,8.6,0,0,1-5.82-4.19H232.3a4.116,4.116,0,1,1,0-8.231H236.7A8.306,8.306,0,1,0,236.7,27.893Z" transform="translate(-200 -27.906)"/>
</svg>
