<svg xmlns="http://www.w3.org/2000/svg" width="13" height="13" viewBox="0 0 13 13">
  <defs>
    <style>
      .cls-1 {
        fill: #ee2824;
        fill-rule: evenodd;
      }
    </style>
  </defs>
  <path id="icon-power-on.svg" class="cls-1" d="M487.087,5062.13h-1.65V5054h1.65v8.13Zm2.245-5.42a5.652,5.652,0,0,1,2.017,3.88,4.848,4.848,0,0,1-9.694,0,5.5,5.5,0,0,1,1.572-3.52c0.61-.73-0.609-1.72-1.424-0.89a7.512,7.512,0,0,0-1.8,4.42,6.5,6.5,0,0,0,13,0,8.147,8.147,0,0,0-2.083-4.69C490.043,5054.9,488.651,5056.01,489.332,5056.71Z" transform="translate(-480 -5054)"/>
</svg>
