<svg xmlns="http://www.w3.org/2000/svg" width="35" height="40" viewBox="0 0 35 40">
  <defs>
    <style>
      .cls-1 {
        fill: #666;
        fill-rule: evenodd;
      }
    </style>
  </defs>
  <path id="icon-security.svg" class="cls-1" d="M1048,3857.5c-5,0-7.5-5-7.5-5s-2.5,5-7.5,5-10-7.5-10-7.5v17.5c0,7.5,5,17.5,17.5,22.5,12.5-5,17.5-15,17.5-22.5V3850S1053,3857.5,1048,3857.5Zm5,10c0,5.64-3.88,12.88-12.5,17.04-8.62-4.16-12.5-11.4-12.5-17.04v-6.22a11.6,11.6,0,0,0,5,1.22,12.513,12.513,0,0,0,7.5-2.54,12.513,12.513,0,0,0,7.5,2.54,11.6,11.6,0,0,0,5-1.22v6.22Zm-12.5,14.23c6.9-3.76,10-9.76,10-14.23v-2.75a12.544,12.544,0,0,1-2.5.25,14.947,14.947,0,0,1-7.5-2.05" transform="translate(-1023 -3850)"/>
</svg>
