<svg xmlns="http://www.w3.org/2000/svg" width="44" height="45" viewBox="0 0 44 45">
  <defs>
    <style>
      .cls-1 {
        fill: #666;
        fill-rule: evenodd;
      }
    </style>
  </defs>
  <path id="icon-vfd.svg" class="cls-1" d="M1056.54,4105.51l0.7-.24a1.2,1.2,0,0,1,1.4.73l1.71,4.26a1.02,1.02,0,0,1-.77,1.22l-0.45.23Zm-7.08,21.97s-0.05-.08-0.13-0.2l-7.71,1.79a4.739,4.739,0,0,1-5.76-3.36l-6.97-17.67h-1.61s-2.26.45-1.99,5.93c0,0,1.09,8.34.18,12.65a8.7,8.7,0,0,1-4.02,5.93l0.68,3.49a25.714,25.714,0,0,1,12.87,2,14.753,14.753,0,0,0,6.64,1.94,6.551,6.551,0,0,0,2.4-.32l8.85-2.62a1.391,1.391,0,0,0,1-1.13l0.58-2.95s0.23-.54-0.9-1.68C1053.57,4131.28,1049.73,4128.29,1049.46,4127.48Zm13.23-7.34-9.66-23.11a3.047,3.047,0,0,0-3.26-2l-21.86,2c-1.91.17-.72,2.99-0.72,2.99l9.94,25.21c1.2,3.45,4.15,2.52,4.15,2.52l20.33-4.71C1063.87,4122.4,1062.69,4120.14,1062.69,4120.14Zm-22.54,5.13-9.98-25.86,20.61-2.01,9.63,23.31Zm16.39-19.76,0.7-.24a1.2,1.2,0,0,1,1.4.73l1.71,4.26a1.02,1.02,0,0,1-.77,1.22l-0.45.23Zm-35.31-4.49a2.241,2.241,0,0,0-2.23,2.24v1.91a2.234,2.234,0,0,0,2.23,2.24h7.52l-2.52-6.39h-5Z" transform="translate(-1019 -4095)"/>
</svg>
