<svg id="icon-windows-premium.svg" xmlns="http://www.w3.org/2000/svg" width="40" height="30" viewBox="0 0 40 30">
  <defs>
    <style>
      .cls-1 {
        fill: #ffc623;
      }

      .cls-1, .cls-2 {
        fill-rule: evenodd;
      }

      .cls-2 {
        fill: #00adef;
      }
    </style>
  </defs>
  <path id="premium" class="cls-1" d="M534.238,708.471v0.08l0.092-.238,3.224,3.944,0.044,0.2h0.24c0-1.77-.187-2.051-1.1-2.973A8.427,8.427,0,0,0,534.146,708l0.092,0.476h0Zm4.96,0.878-0.08.08,0.08-.08h0.16l-0.08,5.187-0.08-.08-0.08-.079-0.08-.081-0.08-.079,0.08,0.079,0.08,0.081,0.08,0.079,0.08,0.08,0.223,0.282,0.9-1.32,0.08-.319,0.08-.718V712.3c0-1.4-.883-2.385-1.12-3.272l-0.15,0-0.09.316h0ZM507.52,713.1c0.112,0.177.153,0.5,0.291,0.748,0.12,0.21.3,0.409,0.429,0.609l0.08,0.08,0.08,0.08,0.08,0.079h0.08v-5.586a7.849,7.849,0,0,0-1.12,3.192v0.24a4.328,4.328,0,0,0,.08.558h0Zm4.16-.478-0.08.079h-0.08l-0.08.08a3.434,3.434,0,0,0-2.4,3.432h0.16l3.92-3.911c-0.121-.313-1.119.245-1.44,0.32h0Zm-5.84,4.468-0.1-.875,0.018-.242a19.607,19.607,0,0,1,.48-2.553l0.24,0.159,0.914,5.261,0.126-.073,0.08-.08-0.08.08-0.075.24c-0.9-.208-1.2-1.339-1.605-1.917h0Zm29.038-4.708v-0.239l1.44,0.479,0.08,0.079h0.08l0.08,0.08h0.08l0.08,0.08a3.367,3.367,0,0,1,2.24,3.352H538.8l-3.778-3.892-0.142.061h0Zm5.6,6.464,0.134-.084L541.6,713.5l0.156-.091a20.32,20.32,0,0,1,.484,2.565v0.319l-0.08.719c-0.67,1.053-.281,1.167-1.52,2l-0.16-.16h0Zm-3.36-2.473,2.72,4.708H540l0.08-.239a4.37,4.37,0,0,0,.08-0.559v-0.319a4.334,4.334,0,0,0-2.24-3.273l-0.758-.538-0.042.22h0Zm-27.038.318,0.88-.478-0.08.4v-0.32l-2.622,4.56L508.32,721l-0.319.091-0.081-1.527a4.383,4.383,0,0,1,2.16-2.874h0Zm30.318,6.145c0.237,0.586,1.731-.617,1.9-0.818,0.729-.869.6-1.532,0.981-2.134l0.156-1.768-0.156.092-2.88,4.628h0Zm-35.678-2.952c0.348,0.546.288,1.382,0.938,2.1,0.757,0.832,1.02.655,1.942,1.1v-0.24l-2.8-4.628-0.274-.077,0.194,1.753h0ZM510,720.6l-0.08.08c-0.9,1.345-1.36,1.344-1.36,3.671l0.56,0.957,1.524-5.114,0.156,0.087-0.047-.448L510,720.6h0Zm-5.76,2.554-0.24-.4v-0.08h0.24l4.325,3.264,0.075-.152v0.319a1.151,1.151,0,0,1-.4.08c-2.316,0-3.2-1.524-4-3.032h0Zm32.958-2.873v-0.4l0.48,0.4,0.08,0.08,0.08,0.079,0.08,0.08L538,720.6l0.08,0.08,0.08,0.08c0.865,1.287,1.28,1.4,1.28,3.591l-0.56.957-1.524-5.114-0.156.087h0Zm2.16,5.586,0.133,0.043,4.267-3.235H544v0.08l-0.24.4c-0.675,1.273-1.775,3.032-3.68,3.032a0.763,0.763,0,0,1-.72-0.239v-0.08h0Zm-29.6,2.155a4.729,4.729,0,0,1,.531-2.5,5.487,5.487,0,0,1,1.309-1.727v0.239l-1.04,5.347-0.156.092-0.644-1.448h0Zm-4.88-1.437c1,1.145,1.711,2.713,3.84,2.713h0.08a6.154,6.154,0,0,0,.8-0.159c0.235-.09.176-0.146,0-0.4-0.133.345-.836-0.24-1.055-0.384-0.355-.234-0.809-0.435-1.183-0.656a17.908,17.908,0,0,1-2.241-1.345l0.639-.089-1.044,0,0.164,0.317h0Zm31.518-2.554,1.04,5.347h0.16l0.64-1.6a4.421,4.421,0,0,0-.561-2.313,5.417,5.417,0,0,0-1.279-1.677v0.239h0Zm1.92,4.789v0.319l1.12,0.159a3.505,3.505,0,0,0,2.222-.975,19.968,19.968,0,0,0,1.458-1.738l0.16-.319h-1.12l0.759,0.149-4.443,2.491-0.156-.086h0Zm-26.158,1.436c0.462,0.665.243,1.09,1.12,1.676l0.08-5.506-0.08-.24c-0.739.54-1.12,2.655-1.12,4.07h0Zm-5.12-.4,5.02,1.756,0.1-.08v0.239l-0.08.08a4.078,4.078,0,0,1-1.28.319c-2.167,0-2.615-1.23-3.76-2l-0.08-.08-0.08-.079-0.08-.08v-0.08h0.24Zm28.8,1.6v0.319a2.463,2.463,0,0,0,1.36.4h0.32c1.36,0,3.127-1.491,3.68-2.314l-0.4-.08,0.173,0.138-5.053,1.7-0.08-.159h0Zm-1.2-4.948,0.09-.316c0.7,0.516,1.11,2.674,1.11,4.067-0.463.665-.243,1.09-1.12,1.676l-0.08-5.427h0Zm-19.678,4.869a5.184,5.184,0,0,0,.738,1.577,3.022,3.022,0,0,0,1.341.976v-0.159L515.2,728.5c-0.364.522-.24,1.989-0.24,2.874h0Zm16,2.394v0.159a2.741,2.741,0,0,0,1.342-.975,5.582,5.582,0,0,0,.737-1.578l-0.159-2.794-1.92,5.188h0Zm1.84-.081,5.279-.717,0.256,0.1-0.176.144a7.1,7.1,0,0,1-3.12,1.436H534.4a3.13,3.13,0,0,1-1.681-.718l-0.075-.153,0.156-.087h0Zm-22.959-.478-0.164-.174,0.324-.065c0.137,0.337,2.12.436,2.562,0.476,0.831,0.075,1.944.322,2.718,0.322v0.159a2.984,2.984,0,0,1-1.92.718h-0.32a6.507,6.507,0,0,1-3.2-1.436h0Zm8.079-1.437a23.255,23.255,0,0,0,1.3,2.137,2.887,2.887,0,0,0,2.3,1.135h0.64v-0.558l-0.091.317a29.944,29.944,0,0,1-3.989-3.429h-0.24l0.08,0.4h0Zm7.92,3.113v0.159h0.8a3,3,0,0,0,2.181-1.175,18.548,18.548,0,0,0,1.258-2.1l0.1-.395-0.336,0,0.086,0.155-4.086,3.356h0Zm-12.4.878-0.094.093,0.088,0.026,5.285-.838,0.172,0.09-0.172.23a2.97,2.97,0,0,1-2.16,1.2H515.6a6.736,6.736,0,0,1-2.08-.479l-0.338-.1,0.258-.222h0Zm15.679-.559,0.159-.16,5.44,0.878-0.24.16a8.236,8.236,0,0,1-2.64.558c-1.7,0-1.938-.914-2.719-1.436h0Zm-3.68,1.037h-0.16l0.16,0.4c0.584,0.427,1.119,1.357,2.32,1.357h1.28a8.229,8.229,0,0,0,1.6-.319h0.239l-0.4-.4-0.08-.08-0.081-.08,0.081,0.08,0.08,0.08,0.173,0.173-0.086.035-5.127-1.246h0Zm-8,1.118,0.08-.08,0.08-.08,0.08-.08-0.08.08-0.08.08-0.08.08-0.364.275,0.284,0.044,1.92,0.319h0.64c1.747,0,1.85-.829,2.64-1.357l0.181-.388-0.181-.011-5.2,1.269,0.081-.151h0Zm-7.279-24.9c0-1.636.195-2.112,1.058-2.935a7.573,7.573,0,0,1,2.542-1.454l-3.44,4.389h-0.16Zm0.16,0,3.44-4.389v0.558a12.424,12.424,0,0,0-.41,1.428,8.041,8.041,0,0,1-.631,1.206,3.188,3.188,0,0,1-2.4,1.2h0Zm23.918-3.91,0.092-.238,3.224,3.944,0.044,0.2c-2.219,0-2.933-2.082-3.36-3.91h0ZM508.56,714.7v-5.586l0.156-.092c0.177,0.752,1.163,2.1,1.044,3.125l-0.08.957c-0.445.639-.306,1.053-1.12,1.6h-0.08l-0.08-.079-0.08-.08-0.08-.08,0.08,0.08,0.08,0.08,0.08,0.079h0.08Zm30.558-5.266,0.08-.08h0.16l-0.08,5.187-0.08-.08-0.08-.079-0.08-.081-0.08-.079-0.72-1.357a6.3,6.3,0,0,1,.88-3.431h0ZM509.2,716.212l3.92-3.911-0.08.32c-0.844,1.755-1.114,3.591-3.84,3.591h0Zm30.638,1.117a5.628,5.628,0,0,1,1.76-3.831l-0.986,5.263-0.134.084-0.64-1.516h0Zm-4.96-4.948,0.142-.061,3.778,3.892c-2.736,0-2.993-1.831-3.84-3.591l-0.08-.24h0Zm-27.358,6.385-0.126.073-0.914-5.261a5.878,5.878,0,0,1,1.6,2.953,2.835,2.835,0,0,1-.48,2.155l-0.08.08h0Zm29.6-1.437v-0.957l2.72,4.708h0a2.95,2.95,0,0,1-1.741-.977,6.193,6.193,0,0,1-.9-1.816l-0.08-.958h0ZM508.32,721a2.482,2.482,0,0,0,1.621-.936,7.246,7.246,0,0,0,.859-1.7l0.08-1.756v-0.32l-2.622,4.56L508.32,721h0Zm31.918,1.436,0.16,0.4,2.88-4.628a8.288,8.288,0,0,0-2.1,1.5,3.456,3.456,0,0,0-.939,2.734h0Zm-32.638.4,0.08-.079,0.08-.719v-0.319c0-1.58-1.876-2.939-2.96-3.511l2.8,4.628h0Zm29.6-2.553,0.156-.087,1.524,5.114a2.3,2.3,0,0,1-1.265-.973,14.406,14.406,0,0,1-.655-1.5l0.24-2.553h0Zm-28.078,5.027c1.1-.255,1.235-1.152,1.76-1.755l0.16-.639-0.24-2.633-0.156-.087-1.524,5.114h0Zm32.238-2.075,2.4-.558-4.267,3.235-0.133-.043a2.88,2.88,0,0,1,1.6-2.394l0.08-.08h0.08l0.08-.08h0.08l0.08-.08h0Zm-32.718,2.554-0.075.152-4.325-3.264,2.4,0.558,0.08,0.08h0.08l0.08,0.08h0.08l0.08,0.08a2.972,2.972,0,0,1,1.6,2.314h0Zm1.92,3.591,1.04-5.347a7.586,7.586,0,0,1,.48,3.352,9.5,9.5,0,0,1-.591,1.167,3.446,3.446,0,0,1-.929.828h0Zm25.358-2c0.537,0.845.39,1.4,1.52,2h0l-1.04-5.347a8.17,8.17,0,0,0-.56,2.315v0.478a4.319,4.319,0,0,0,.08.559h0ZM509.6,728.741c-0.133.345-.836-0.24-1.055-0.384-0.355-.234-0.809-0.435-1.183-0.656a17.908,17.908,0,0,1-2.241-1.345l0.639-.089,0.8,0.08,1.12,0.319a2.845,2.845,0,0,1,1.92,2.075h0Zm31.838-2.394,0.72-.08,0.759,0.149-4.443,2.491-0.156-.086c0.464-.964.808-1.878,2-2.155l1.12-.319h0Zm-7.839,3.91a4.757,4.757,0,0,0,1.119,1.676l-0.08-5.427c-0.714.522-1.039,2.394-1.039,3.751h0Zm-20.319,1.676,0.08-5.506a6.02,6.02,0,0,1,1.04,3.67c-0.133.209-.239,0.691-0.454,1.064a2.116,2.116,0,0,1-.666.772h0Zm-1.12-.4-0.1.08-5.02-1.756,0.88-.16,0.88-.079h0.32a4.549,4.549,0,0,1,.56.079l0.72,0.16,0.16,0.08a3.021,3.021,0,0,1,1.6,1.6h0Zm26.158-1.836a4.549,4.549,0,0,1,.56-0.079h0.64a4.549,4.549,0,0,1,.56.079l0.72,0.08,0.173,0.138-5.053,1.7-0.08-.159a3.485,3.485,0,0,1,1.6-1.516l0.08-.08,0.8-.16h0Zm-7.76,3.193a4.56,4.56,0,0,1-.079-0.559v-0.08c0-1.354,1.969-3.921,2.4-3.671l-1.92,5.188-0.4-.878h0Zm-4.719,1.755a2.988,2.988,0,0,1,1.337-2.257,4.522,4.522,0,0,1,1.221-.617c0.346-.134,1.182-0.274,1.442-0.4l0.086,0.155-4.086,3.356v-0.24h0Zm-8.8-.877L515.2,728.5a7.485,7.485,0,0,1,1.6,1.755c0.627,0.886.638,1.239,0.638,2.715l-0.08.318-0.32.48h0Zm17.6-1.357,0.4-.08h0.88l1.28,0.319,0.88,0.32-5.279.717a2.721,2.721,0,0,1,1.839-1.276h0Zm-24,.319,1.6-.4h0.72l0.4,0.08a2.868,2.868,0,0,1,1.92,1.357c-0.774,0-1.887-.247-2.718-0.322-0.442-.04-2.425-0.139-2.562-0.476l0.64-.24h0Zm11.519,1.756-0.091.317a29.944,29.944,0,0,1-3.989-3.429c1.807,0.42,3.913,1.108,4.08,3.112h0Zm-8.719,1.277-0.094.093,0.088,0.026,5.285-.838a2.634,2.634,0,0,0-1.68-.718H516.4a6.014,6.014,0,0,0-2.96,1.437h0Zm15.838-.719,5.44,0.878a5.84,5.84,0,0,0-3.2-1.6h-0.641a2.552,2.552,0,0,0-1.6.718h0Zm-11.6,2.075-0.08.08-0.08.08-0.08.08-0.081.151,5.2-1.269a2.979,2.979,0,0,0-1.92-.638,5.314,5.314,0,0,0-2.96,1.516h0Zm7.76-.878,5.127,1.246,0.086-.035-0.173-.173-0.08-.08-0.081-.08a5.315,5.315,0,0,0-2.959-1.516,2.9,2.9,0,0,0-1.92.638h0Zm-1.589-1.492a0.7,0.7,0,1,1-.707.705A0.7,0.7,0,0,1,523.85,734.75Z" transform="translate(-504 -708)"/>
  <path id="windows" class="cls-2" d="M516,714.264l6.539-.888,0,6.289L516,719.7Zm6.536,6.126,0,6.295-6.536-.9v-5.441Zm0.793-7.13L532,712v7.587l-8.67.069V713.26ZM532,720.449L532,728l-8.67-1.22-0.012-6.347Z" transform="translate(-504 -708)"/>
</svg>
