<?xml version="1.0" encoding="utf-8"?>
<!-- Generator: Adobe Illustrator 19.2.1, SVG Export Plug-In . SVG Version: 6.00 Build 0)  -->
<svg version="1.1" id="Layer_1" xmlns="http://www.w3.org/2000/svg" xmlns:xlink="http://www.w3.org/1999/xlink" x="0px" y="0px"
	 viewBox="0 0 68.1 29.5" style="enable-background:new 0 0 68.1 29.5;" xml:space="preserve">
<style type="text/css">
	.st0{fill:#919195;}
	.st1{fill:#EE2C24;}
</style>
<g>
	<path class="st0" d="M55.2,0c-4.7,0-8.4,3.8-8.4,8.4c0,4.2,0,8.4,0,12.6c0,4.7,3.8,8.4,8.4,8.4c4.3,0,8.6,0,12.8,0
		c0-1.4,0-2.8,0-4.3c-4.3,0-8.6,0-12.8,0c-2.3,0-4.2-1.9-4.2-4.2c0-4.2,0-8.4,0-12.6c0-2.3,1.9-4.2,4.2-4.2c4.3,0,8.6,0,12.8,0
		c0-1.4,0-2.8,0-4.3C63.8,0,59.5,0,55.2,0z"/>
	<path class="st1" d="M36.2,0C29,0,21.8,0,14.5,0c2.5,0.5,4.6,2.1,5.8,4.3c5.3,0,10.6,0,15.9,0c2.3,0,4.2,1.9,4.2,4.2
		c0,2.3-1.9,4.2-4.2,4.2c-1.5,0-2.9,0-4.4,0c-4.7,0-8.4,3.8-8.4,8.4c0,4.7,3.8,8.4,8.4,8.4c7.2,0,14.5,0,21.7,0
		c-2.5-0.5-4.6-2.1-5.8-4.3c-5.3,0-10.6,0-15.9,0c-2.3,0-4.2-1.9-4.2-4.2c0-2.3,1.9-4.2,4.2-4.2c1.5,0,2.9,0,4.4,0
		c4.7,0,8.4-3.8,8.4-8.4C44.7,3.8,40.9,0,36.2,0z"/>
	<path class="st0" d="M12.8,12.6c-4.3,0-8.6,0-12.8,0c0,5.6,0,11.2,0,16.9c1.4,0,2.8,0,4.3,0c0-4.2,0-8.4,0-12.6c2.9,0,5.7,0,8.6,0
		c4.7,0,8.4-3.8,8.4-8.4c0-4.7-3.8-8.4-8.4-8.4C8.6,0,4.3,0,0,0c0,1.4,0,2.8,0,4.3c4.3,0,8.6,0,12.8,0c2.3,0,4.2,1.9,4.2,4.2
		C17,10.7,15.1,12.6,12.8,12.6z"/>
</g>
</svg>
